<?xml version="1.0" encoding="UTF-8"?><svg id="Layer_1" xmlns="http://www.w3.org/2000/svg" viewBox="0 0 90 90"><defs><style>.cls-1{fill:#cfc1a5;}.cls-1,.cls-2,.cls-3,.cls-4,.cls-5,.cls-6,.cls-7,.cls-8{stroke:#442b2e;stroke-linecap:round;stroke-linejoin:round;stroke-width:2px;}.cls-2{fill:#c9c8c7;}.cls-3{fill:#c44853;}.cls-4{fill:#999795;}.cls-5{fill:#9dc12c;}.cls-6{fill:#f5f3ed;}.cls-7{fill:#f9aa68;}.cls-8{fill:#f9d84c;}</style></defs><polygon class="cls-2" points="31.46 7.27 71.93 30.34 71.6 76.14 31.99 52.57 31.46 7.27"/><polygon class="cls-4" points="71.65 76.11 76.58 73.27 76.38 26.91 71.11 30.01 76.38 26.91 36.79 4.05 31.46 7.12 71.11 30.01 71.65 76.11"/><path class="cls-1" d="M58.1,83.98S18.57,60.35,18.57,60.35l13.4-7.5,39.34,23.47-13.2,7.67"/><path class="cls-2" d="M58.08,77.8l13.13-7.58-38.91-22.54-18.82,10.52s39.27,22.66,39.27,22.67l5.32-3.07Z"/><polygon class="cls-2" points="13.48 58.2 13.57 64.4 52.8 87.06 53.06 81.1 13.48 58.2"/><polygon class="cls-4" points="52.75 80.88 71.21 70.22 71.28 76.33 52.8 87.06 52.75 80.88"/><path class="cls-6" d="M15.49,28.63c1.09,2.08,2.88,3.08,5.32,3.07l15.97-9.22-5.32-3.07-15.97,9.22Z"/><polygon class="cls-1" points="36.79 22.49 36.79 53.22 20.82 62.44 20.82 31.71 36.79 22.49"/><path class="cls-3" d="M15.49,59.37c.76,2.35,2.8,3.02,5.32,3.07V31.71c-2.42,.07-4.18-.99-5.32-3.07v30.73Z"/><path class="cls-6" d="M20.8,31.72c1.09,2.08,2.88,3.08,5.32,3.07l15.97-9.22-5.32-3.07-15.97,9.22Z"/><polygon class="cls-5" points="42.09 25.57 42.09 56.3 26.12 65.52 26.12 34.79 42.09 25.57"/><path class="cls-5" d="M20.8,62.45c.76,2.35,2.8,3.02,5.32,3.07v-30.73c-2.42,.07-4.18-.99-5.32-3.07v30.73Z"/><path class="cls-6" d="M31.65,35.33c1.09,2.08,2.88,3.08,5.32,3.07l15.97-9.22-5.32-3.07-15.97,9.22Z"/><polygon class="cls-7" points="52.95 29.18 52.95 59.91 36.98 69.13 36.98 38.4 52.95 29.18"/><path class="cls-7" d="M31.65,66.06c.76,2.35,2.8,3.02,5.32,3.07v-30.73c-2.42,.07-4.18-.99-5.32-3.07v30.73Z"/><path class="cls-6" d="M41.49,40.84c1.09,2.08,2.88,3.08,5.32,3.07l15.97-9.22-5.32-3.07-15.97,9.22Z"/><polygon class="cls-8" points="62.78 34.69 62.78 65.43 46.81 74.64 46.81 43.91 62.78 34.69"/><path class="cls-8" d="M41.49,71.57c.76,2.35,2.8,3.02,5.32,3.07v-30.73c-2.42,.07-4.18-.99-5.32-3.07v30.73Z"/></svg>