<?xml version="1.0" encoding="UTF-8"?><svg id="Layer_1" xmlns="http://www.w3.org/2000/svg" viewBox="0 0 90 90"><defs><style>.cls-1{fill:#f8bfb7;}.cls-2,.cls-3{fill:#f9aa68;}.cls-4{fill:#f2838a;}.cls-5{fill:#f5e0df;}.cls-6{fill:#9dc12c;}.cls-7,.cls-8{fill:#c44853;}.cls-8,.cls-9,.cls-10,.cls-3,.cls-11{stroke:#442b2e;stroke-linecap:round;stroke-linejoin:round;stroke-width:2px;}.cls-9{fill:#f6daaa;}.cls-10{fill:none;}.cls-11{fill:#f9d84c;}.cls-12{opacity:.35;}</style></defs><polygon class="cls-9" points="45 73.23 83.16 51.2 45 29.17 6.83 51.2 45 73.23"/><polygon class="cls-3" points="6.83 51.2 6.83 57.5 45 79.53 45 73.23 6.83 51.2"/><polygon class="cls-3" points="45 73.23 83.16 51.2 83.16 57.5 45 79.53 45 73.23"/><g><path class="cls-7" d="M46.73,64.36c2.44,1.41,5.66,2.12,8.88,2.12,3.22,0,6.44-.71,8.88-2.12s3.66-3.27,3.66-5.13-1.22-3.72-3.66-5.13c-2.44-1.41-5.66-2.12-8.88-2.12-3.22,0-6.44,.71-8.88,2.12-2.44,1.41-3.66,3.27-3.66,5.13s1.22,3.72,3.66,5.13Z"/><path class="cls-8" d="M46.73,64.36c2.44,1.41,5.66,2.12,8.88,2.12,3.22,0,6.44-.71,8.88-2.12s3.66-3.27,3.66-5.13-1.22-3.72-3.66-5.13c-2.44-1.41-5.66-2.12-8.88-2.12-3.22,0-6.44,.71-8.88,2.12-2.44,1.41-3.66,3.27-3.66,5.13s1.22,3.72,3.66,5.13Z"/></g><g><path class="cls-5" d="M48.68,57.92c.35,.2,.82,.31,1.28,.31s.93-.1,1.28-.31,.53-.47,.53-.74-.18-.54-.53-.74-.82-.31-1.28-.31-.93,.1-1.28,.31-.53,.47-.53,.74,.18,.54,.53,.74Z"/><path class="cls-5" d="M48.68,57.92c.35,.2,.82,.31,1.28,.31s.93-.1,1.28-.31,.53-.47,.53-.74-.18-.54-.53-.74-.82-.31-1.28-.31-.93,.1-1.28,.31-.53,.47-.53,.74,.18,.54,.53,.74Z"/></g><g><path class="cls-5" d="M52.85,64.85c.3,.17,.7,.26,1.09,.26s.79-.09,1.09-.26,.45-.4,.45-.63-.15-.46-.45-.63-.7-.26-1.09-.26-.79,.09-1.09,.26-.45,.4-.45,.63,.15,.46,.45,.63Z"/><path class="cls-5" d="M52.85,64.85c.3,.17,.7,.26,1.09,.26s.79-.09,1.09-.26,.45-.4,.45-.63-.15-.46-.45-.63-.7-.26-1.09-.26-.79,.09-1.09,.26-.45,.4-.45,.63,.15,.46,.45,.63Z"/></g><g><path class="cls-5" d="M58.51,55.99c.26,.15,.6,.22,.93,.22s.68-.07,.93-.22,.39-.34,.39-.54-.13-.39-.39-.54-.6-.22-.93-.22-.68,.07-.93,.22-.39,.34-.39,.54,.13,.39,.39,.54Z"/><path class="cls-5" d="M58.51,55.99c.26,.15,.6,.22,.93,.22s.68-.07,.93-.22,.39-.34,.39-.54-.13-.39-.39-.54-.6-.22-.93-.22-.68,.07-.93,.22-.39,.34-.39,.54,.13,.39,.39,.54Z"/></g><g><path class="cls-5" d="M56.54,61.14c.26,.15,.6,.22,.93,.22s.68-.07,.93-.22,.39-.34,.39-.54-.13-.39-.39-.54-.6-.22-.93-.22-.68,.07-.93,.22-.39,.34-.39,.54,.13,.39,.39,.54Z"/><path class="cls-5" d="M56.54,61.14c.26,.15,.6,.22,.93,.22s.68-.07,.93-.22,.39-.34,.39-.54-.13-.39-.39-.54-.6-.22-.93-.22-.68,.07-.93,.22-.39,.34-.39,.54,.13,.39,.39,.54Z"/></g><g><path class="cls-5" d="M47.47,62.31c.19,.11,.43,.16,.68,.16s.49-.05,.68-.16,.28-.25,.28-.39-.09-.29-.28-.39-.43-.16-.68-.16-.49,.05-.68,.16-.28,.25-.28,.39,.09,.29,.28,.39Z"/><path class="cls-5" d="M47.47,62.31c.19,.11,.43,.16,.68,.16s.49-.05,.68-.16,.28-.25,.28-.39-.09-.29-.28-.39-.43-.16-.68-.16-.49,.05-.68,.16-.28,.25-.28,.39,.09,.29,.28,.39Z"/></g><g><path class="cls-5" d="M63.99,61.07c.09,.05,.22,.08,.34,.08s.25-.03,.34-.08,.14-.13,.14-.2-.05-.14-.14-.2-.22-.08-.34-.08-.25,.03-.34,.08-.14,.13-.14,.2,.05,.14,.14,.2Z"/><path class="cls-5" d="M63.99,61.07c.09,.05,.22,.08,.34,.08s.25-.03,.34-.08,.14-.13,.14-.2-.05-.14-.14-.2-.22-.08-.34-.08-.25,.03-.34,.08-.14,.13-.14,.2,.05,.14,.14,.2Z"/></g><g><path class="cls-1" d="M58.45,63.68c.22,.13,.51,.19,.8,.19s.58-.06,.8-.19,.33-.29,.33-.46-.11-.33-.33-.46-.51-.19-.8-.19-.58,.06-.8,.19-.33,.29-.33,.46,.11,.33,.33,.46Z"/><path class="cls-1" d="M58.45,63.68c.22,.13,.51,.19,.8,.19s.58-.06,.8-.19,.33-.29,.33-.46-.11-.33-.33-.46-.51-.19-.8-.19-.58,.06-.8,.19-.33,.29-.33,.46,.11,.33,.33,.46Z"/></g><g><path class="cls-1" d="M54.28,56.02c.22,.13,.51,.19,.8,.19s.58-.06,.8-.19,.33-.29,.33-.46-.11-.33-.33-.46-.51-.19-.8-.19-.58,.06-.8,.19-.33,.29-.33,.46,.11,.33,.33,.46Z"/><path class="cls-1" d="M54.28,56.02c.22,.13,.51,.19,.8,.19s.58-.06,.8-.19,.33-.29,.33-.46-.11-.33-.33-.46-.51-.19-.8-.19-.58,.06-.8,.19-.33,.29-.33,.46,.11,.33,.33,.46Z"/></g><g><path class="cls-1" d="M50.61,61.99c.22,.13,.51,.19,.8,.19s.58-.06,.8-.19,.33-.29,.33-.46-.11-.33-.33-.46-.51-.19-.8-.19-.58,.06-.8,.19-.33,.29-.33,.46,.11,.33,.33,.46Z"/><path class="cls-1" d="M50.61,61.99c.22,.13,.51,.19,.8,.19s.58-.06,.8-.19,.33-.29,.33-.46-.11-.33-.33-.46-.51-.19-.8-.19-.58,.06-.8,.19-.33,.29-.33,.46,.11,.33,.33,.46Z"/></g><g><path class="cls-1" d="M62.62,57.85c.22,.13,.51,.19,.8,.19s.58-.06,.8-.19,.33-.29,.33-.46-.11-.33-.33-.46-.51-.19-.8-.19-.58,.06-.8,.19-.33,.29-.33,.46,.11,.33,.33,.46Z"/><path class="cls-1" d="M62.62,57.85c.22,.13,.51,.19,.8,.19s.58-.06,.8-.19,.33-.29,.33-.46-.11-.33-.33-.46-.51-.19-.8-.19-.58,.06-.8,.19-.33,.29-.33,.46,.11,.33,.33,.46Z"/></g><g><path class="cls-4" d="M53.69,59.15c.22,.13,.51,.19,.8,.19s.58-.06,.8-.19,.33-.29,.33-.46-.11-.33-.33-.46-.51-.19-.8-.19-.58,.06-.8,.19-.33,.29-.33,.46,.11,.33,.33,.46Z"/><path class="cls-4" d="M53.69,59.15c.22,.13,.51,.19,.8,.19s.58-.06,.8-.19,.33-.29,.33-.46-.11-.33-.33-.46-.51-.19-.8-.19-.58,.06-.8,.19-.33,.29-.33,.46,.11,.33,.33,.46Z"/></g><g><path class="cls-4" d="M46.18,60.13c.19,.11,.43,.16,.68,.16s.49-.05,.68-.16,.28-.25,.28-.39-.09-.29-.28-.39-.43-.16-.68-.16-.49,.05-.68,.16-.28,.25-.28,.39,.09,.29,.28,.39Z"/><path class="cls-4" d="M46.18,60.13c.19,.11,.43,.16,.68,.16s.49-.05,.68-.16,.28-.25,.28-.39-.09-.29-.28-.39-.43-.16-.68-.16-.49,.05-.68,.16-.28,.25-.28,.39,.09,.29,.28,.39Z"/></g><g><path class="cls-4" d="M60.87,60.89c.19,.11,.43,.16,.68,.16s.49-.05,.68-.16,.28-.25,.28-.39-.09-.29-.28-.39-.43-.16-.68-.16-.49,.05-.68,.16-.28,.25-.28,.39,.09,.29,.28,.39Z"/><path class="cls-4" d="M60.87,60.89c.19,.11,.43,.16,.68,.16s.49-.05,.68-.16,.28-.25,.28-.39-.09-.29-.28-.39-.43-.16-.68-.16-.49,.05-.68,.16-.28,.25-.28,.39,.09,.29,.28,.39Z"/></g><g><path class="cls-1" d="M57.72,57.95c.11,.06,.25,.1,.4,.1s.29-.03,.4-.1,.16-.15,.16-.23-.05-.17-.16-.23-.25-.1-.4-.1-.29,.03-.4,.1-.16,.15-.16,.23,.05,.17,.16,.23Z"/><path class="cls-1" d="M57.72,57.95c.11,.06,.25,.1,.4,.1s.29-.03,.4-.1,.16-.15,.16-.23-.05-.17-.16-.23-.25-.1-.4-.1-.29,.03-.4,.1-.16,.15-.16,.23,.05,.17,.16,.23Z"/></g><g><path class="cls-7" d="M43.87,54.16c-2.44-1.41-5.66-2.12-8.88-2.12-3.22,0-6.44,.71-8.88,2.12s-3.66,3.27-3.66,5.13,1.22,3.72,3.66,5.13c2.44,1.41,5.66,2.12,8.88,2.12s6.44-.71,8.88-2.12c2.44-1.41,3.66-3.27,3.66-5.13s-1.22-3.72-3.66-5.13Z"/><path class="cls-8" d="M43.87,54.16c-2.44-1.41-5.66-2.12-8.88-2.12-3.22,0-6.44,.71-8.88,2.12s-3.66,3.27-3.66,5.13,1.22,3.72,3.66,5.13c2.44,1.41,5.66,2.12,8.88,2.12s6.44-.71,8.88-2.12c2.44-1.41,3.66-3.27,3.66-5.13s-1.22-3.72-3.66-5.13Z"/></g><g><path class="cls-5" d="M41.92,61.2c-.35-.2-.82-.31-1.28-.31s-.93,.1-1.28,.31-.53,.47-.53,.74,.18,.54,.53,.74,.82,.31,1.28,.31,.93-.1,1.28-.31,.53-.47,.53-.74-.18-.54-.53-.74Z"/><path class="cls-5" d="M41.92,61.2c-.35-.2-.82-.31-1.28-.31s-.93,.1-1.28,.31-.53,.47-.53,.74,.18,.54,.53,.74,.82,.31,1.28,.31,.93-.1,1.28-.31,.53-.47,.53-.74-.18-.54-.53-.74Z"/></g><g><path class="cls-5" d="M37.75,54.28c-.3-.17-.7-.26-1.09-.26s-.79,.09-1.09,.26-.45,.4-.45,.63,.15,.46,.45,.63,.7,.26,1.09,.26,.79-.09,1.09-.26,.45-.4,.45-.63-.15-.46-.45-.63Z"/><path class="cls-5" d="M37.75,54.28c-.3-.17-.7-.26-1.09-.26s-.79,.09-1.09,.26-.45,.4-.45,.63,.15,.46,.45,.63,.7,.26,1.09,.26,.79-.09,1.09-.26,.45-.4,.45-.63-.15-.46-.45-.63Z"/></g><g><path class="cls-5" d="M32.09,63.14c-.26-.15-.6-.22-.93-.22s-.68,.07-.93,.22-.39,.34-.39,.54,.13,.39,.39,.54,.6,.22,.93,.22,.68-.07,.93-.22,.39-.34,.39-.54-.13-.39-.39-.54Z"/><path class="cls-5" d="M32.09,63.14c-.26-.15-.6-.22-.93-.22s-.68,.07-.93,.22-.39,.34-.39,.54,.13,.39,.39,.54,.6,.22,.93,.22,.68-.07,.93-.22,.39-.34,.39-.54-.13-.39-.39-.54Z"/></g><g><path class="cls-5" d="M34.06,57.99c-.26-.15-.6-.22-.93-.22s-.68,.07-.93,.22-.39,.34-.39,.54,.13,.39,.39,.54,.6,.22,.93,.22,.68-.07,.93-.22,.39-.34,.39-.54-.13-.39-.39-.54Z"/><path class="cls-5" d="M34.06,57.99c-.26-.15-.6-.22-.93-.22s-.68,.07-.93,.22-.39,.34-.39,.54,.13,.39,.39,.54,.6,.22,.93,.22,.68-.07,.93-.22,.39-.34,.39-.54-.13-.39-.39-.54Z"/></g><g><path class="cls-5" d="M42.53,55.61c-.19-.11-.43-.16-.68-.16s-.49,.05-.68,.16-.28,.25-.28,.39,.09,.29,.28,.39,.43,.16,.68,.16,.49-.05,.68-.16,.28-.25,.28-.39-.09-.29-.28-.39Z"/><path class="cls-5" d="M42.53,55.61c-.19-.11-.43-.16-.68-.16s-.49,.05-.68,.16-.28,.25-.28,.39,.09,.29,.28,.39,.43,.16,.68,.16,.49-.05,.68-.16,.28-.25,.28-.39-.09-.29-.28-.39Z"/></g><g><path class="cls-5" d="M25.82,58.48c-.09-.05-.22-.08-.34-.08s-.25,.03-.34,.08-.14,.13-.14,.2,.05,.14,.14,.2,.22,.08,.34,.08,.25-.03,.34-.08,.14-.13,.14-.2-.05-.14-.14-.2Z"/><path class="cls-5" d="M25.82,58.48c-.09-.05-.22-.08-.34-.08s-.25,.03-.34,.08-.14,.13-.14,.2,.05,.14,.14,.2,.22,.08,.34,.08,.25-.03,.34-.08,.14-.13,.14-.2-.05-.14-.14-.2Z"/></g><g><path class="cls-1" d="M32.15,55.45c-.22-.13-.51-.19-.8-.19s-.58,.06-.8,.19-.33,.29-.33,.46,.11,.33,.33,.46,.51,.19,.8,.19,.58-.06,.8-.19,.33-.29,.33-.46-.11-.33-.33-.46Z"/><path class="cls-1" d="M32.15,55.45c-.22-.13-.51-.19-.8-.19s-.58,.06-.8,.19-.33,.29-.33,.46,.11,.33,.33,.46,.51,.19,.8,.19,.58-.06,.8-.19,.33-.29,.33-.46-.11-.33-.33-.46Z"/></g><g><path class="cls-1" d="M36.33,63.11c-.22-.13-.51-.19-.8-.19s-.58,.06-.8,.19-.33,.29-.33,.46,.11,.33,.33,.46,.51,.19,.8,.19,.58-.06,.8-.19,.33-.29,.33-.46-.11-.33-.33-.46Z"/><path class="cls-1" d="M36.33,63.11c-.22-.13-.51-.19-.8-.19s-.58,.06-.8,.19-.33,.29-.33,.46,.11,.33,.33,.46,.51,.19,.8,.19,.58-.06,.8-.19,.33-.29,.33-.46-.11-.33-.33-.46Z"/></g><g><path class="cls-1" d="M39.99,57.14c-.22-.13-.51-.19-.8-.19s-.58,.06-.8,.19-.33,.29-.33,.46,.11,.33,.33,.46,.51,.19,.8,.19,.58-.06,.8-.19,.33-.29,.33-.46-.11-.33-.33-.46Z"/><path class="cls-1" d="M39.99,57.14c-.22-.13-.51-.19-.8-.19s-.58,.06-.8,.19-.33,.29-.33,.46,.11,.33,.33,.46,.51,.19,.8,.19,.58-.06,.8-.19,.33-.29,.33-.46-.11-.33-.33-.46Z"/></g><g><path class="cls-1" d="M27.19,61.7c-.22-.13-.51-.19-.8-.19s-.58,.06-.8,.19-.33,.29-.33,.46,.11,.33,.33,.46,.51,.19,.8,.19,.58-.06,.8-.19,.33-.29,.33-.46-.11-.33-.33-.46Z"/><path class="cls-1" d="M27.19,61.7c-.22-.13-.51-.19-.8-.19s-.58,.06-.8,.19-.33,.29-.33,.46,.11,.33,.33,.46,.51,.19,.8,.19,.58-.06,.8-.19,.33-.29,.33-.46-.11-.33-.33-.46Z"/></g><g><path class="cls-4" d="M36.92,59.97c-.22-.13-.51-.19-.8-.19s-.58,.06-.8,.19-.33,.29-.33,.46,.11,.33,.33,.46,.51,.19,.8,.19,.58-.06,.8-.19,.33-.29,.33-.46-.11-.33-.33-.46Z"/><path class="cls-4" d="M36.92,59.97c-.22-.13-.51-.19-.8-.19s-.58,.06-.8,.19-.33,.29-.33,.46,.11,.33,.33,.46,.51,.19,.8,.19,.58-.06,.8-.19,.33-.29,.33-.46-.11-.33-.33-.46Z"/></g><g><path class="cls-4" d="M43.82,57.78c-.19-.11-.43-.16-.68-.16s-.49,.05-.68,.16-.28,.25-.28,.39,.09,.29,.28,.39,.43,.16,.68,.16,.49-.05,.68-.16,.28-.25,.28-.39-.09-.29-.28-.39Z"/><path class="cls-4" d="M43.82,57.78c-.19-.11-.43-.16-.68-.16s-.49,.05-.68,.16-.28,.25-.28,.39,.09,.29,.28,.39,.43,.16,.68,.16,.49-.05,.68-.16,.28-.25,.28-.39-.09-.29-.28-.39Z"/></g><g><path class="cls-4" d="M29.74,58.24c-.19-.11-.43-.16-.68-.16s-.49,.05-.68,.16-.28,.25-.28,.39,.09,.29,.28,.39,.43,.16,.68,.16,.49-.05,.68-.16,.28-.25,.28-.39-.09-.29-.28-.39Z"/><path class="cls-4" d="M29.74,58.24c-.19-.11-.43-.16-.68-.16s-.49,.05-.68,.16-.28,.25-.28,.39,.09,.29,.28,.39,.43,.16,.68,.16,.49-.05,.68-.16,.28-.25,.28-.39-.09-.29-.28-.39Z"/></g><g><path class="cls-1" d="M32.88,61.18c-.11-.06-.25-.1-.4-.1s-.29,.03-.4,.1-.16,.15-.16,.23,.05,.17,.16,.23,.25,.1,.4,.1,.29-.03,.4-.1,.16-.15,.16-.23-.05-.17-.16-.23Z"/><path class="cls-1" d="M32.88,61.18c-.11-.06-.25-.1-.4-.1s-.29,.03-.4,.1-.16,.15-.16,.23,.05,.17,.16,.23,.25,.1,.4,.1,.29-.03,.4-.1,.16-.15,.16-.23-.05-.17-.16-.23Z"/></g><g><path class="cls-6" d="M25.43,57.3c2.41,1.39,3.6,6.15,6.52,6.96,2.73,.76,6.33-2.66,9.29-2.41s5.83,4.23,8.72,3.99,5.14-4.67,7.88-5.43c2.91-.81,7.18,1.75,9.59,.36,1.99-1.15,1.19-5.54,2.5-6.9,1.59-1.66,6.03-1.46,6.6-3.29,.63-2.03-3.19-4.11-3.82-6.14-.57-1.83,1.7-5.59,.11-7.25-1.3-1.36-5.39,.48-7.38-.66-2.41-1.39-3.6-6.15-6.52-6.96-2.73-.76-6.33,2.66-9.29,2.41s-5.83-4.23-8.72-3.99-5.14,4.67-7.88,5.43c-2.91,.81-7.18-1.75-9.59-.36-1.99,1.15-1.19,5.54-2.5,6.9-1.59,1.66-6.03,1.46-6.6,3.29-.63,2.03,3.19,4.11,3.82,6.14,.57,1.83-1.7,5.59-.11,7.25,1.3,1.36,5.39-.48,7.38,.66Z"/><path class="cls-10" d="M25.43,57.3c2.41,1.39,3.6,6.15,6.52,6.96,2.73,.76,6.33-2.66,9.29-2.41s5.83,4.23,8.72,3.99,5.14-4.67,7.88-5.43c2.91-.81,7.18,1.75,9.59,.36,1.99-1.15,1.19-5.54,2.5-6.9,1.59-1.66,6.03-1.46,6.6-3.29,.63-2.03-3.19-4.11-3.82-6.14-.57-1.83,1.7-5.59,.11-7.25-1.3-1.36-5.39,.48-7.38-.66-2.41-1.39-3.6-6.15-6.52-6.96-2.73-.76-6.33,2.66-9.29,2.41s-5.83-4.23-8.72-3.99-5.14,4.67-7.88,5.43c-2.91,.81-7.18-1.75-9.59-.36-1.99,1.15-1.19,5.54-2.5,6.9-1.59,1.66-6.03,1.46-6.6,3.29-.63,2.03,3.19,4.11,3.82,6.14,.57,1.83-1.7,5.59-.11,7.25,1.3,1.36,5.39-.48,7.38,.66Z"/></g><polygon class="cls-11" points="45.07 66.13 79.42 46.3 45.07 26.47 10.72 46.3 45.07 66.13"/><polygon class="cls-9" points="45.15 54.07 83.31 32.03 45.15 10 6.99 32.03 45.15 54.07"/><polygon class="cls-3" points="6.99 32.03 6.99 38.33 45.15 60.36 45.15 54.07 6.99 32.03"/><polygon class="cls-3" points="45.15 54.07 83.31 32.03 83.31 38.33 45.15 60.36 45.15 54.07"/><g class="cls-12"><path class="cls-2" d="M50.16,20.6c-.67-.39-1.55-.58-2.43-.58s-1.76,.19-2.43,.58-1,.9-1,1.4,.33,1.02,1,1.4,1.55,.58,2.43,.58,1.76-.19,2.43-.58,1-.9,1-1.4-.33-1.02-1-1.4Z"/><path class="cls-2" d="M50.16,20.6c-.67-.39-1.55-.58-2.43-.58s-1.76,.19-2.43,.58-1,.9-1,1.4,.33,1.02,1,1.4,1.55,.58,2.43,.58,1.76-.19,2.43-.58,1-.9,1-1.4-.33-1.02-1-1.4Z"/></g><g class="cls-12"><path class="cls-2" d="M46.1,43.72c-.67-.39-1.55-.58-2.43-.58s-1.76,.19-2.43,.58-1,.9-1,1.4,.33,1.02,1,1.4,1.55,.58,2.43,.58,1.76-.19,2.43-.58,1-.9,1-1.4-.33-1.02-1-1.4Z"/><path class="cls-2" d="M46.1,43.72c-.67-.39-1.55-.58-2.43-.58s-1.76,.19-2.43,.58-1,.9-1,1.4,.33,1.02,1,1.4,1.55,.58,2.43,.58,1.76-.19,2.43-.58,1-.9,1-1.4-.33-1.02-1-1.4Z"/></g><g class="cls-12"><path class="cls-2" d="M66.67,31.63c-.67-.39-1.55-.58-2.43-.58s-1.76,.19-2.43,.58-1,.9-1,1.4,.33,1.02,1,1.4,1.55,.58,2.43,.58,1.76-.19,2.43-.58,1-.9,1-1.4-.33-1.02-1-1.4Z"/><path class="cls-2" d="M66.67,31.63c-.67-.39-1.55-.58-2.43-.58s-1.76,.19-2.43,.58-1,.9-1,1.4,.33,1.02,1,1.4,1.55,.58,2.43,.58,1.76-.19,2.43-.58,1-.9,1-1.4-.33-1.02-1-1.4Z"/></g><g class="cls-12"><path class="cls-2" d="M40.66,28.64c-.67-.39-1.55-.58-2.43-.58s-1.76,.19-2.43,.58-1,.9-1,1.4,.33,1.02,1,1.4,1.55,.58,2.43,.58,1.76-.19,2.43-.58,1-.9,1-1.4-.33-1.02-1-1.4Z"/><path class="cls-2" d="M40.66,28.64c-.67-.39-1.55-.58-2.43-.58s-1.76,.19-2.43,.58-1,.9-1,1.4,.33,1.02,1,1.4,1.55,.58,2.43,.58,1.76-.19,2.43-.58,1-.9,1-1.4-.33-1.02-1-1.4Z"/></g><g class="cls-12"><path class="cls-2" d="M21.99,30.63c-.67-.39-1.55-.58-2.43-.58s-1.76,.19-2.43,.58-1,.9-1,1.4,.33,1.02,1,1.4,1.55,.58,2.43,.58,1.76-.19,2.43-.58,1-.9,1-1.4-.33-1.02-1-1.4Z"/><path class="cls-2" d="M21.99,30.63c-.67-.39-1.55-.58-2.43-.58s-1.76,.19-2.43,.58-1,.9-1,1.4,.33,1.02,1,1.4,1.55,.58,2.43,.58,1.76-.19,2.43-.58,1-.9,1-1.4-.33-1.02-1-1.4Z"/></g><g class="cls-12"><path class="cls-2" d="M34.47,39.32c-.47-.27-1.09-.41-1.71-.41s-1.24,.14-1.71,.41-.7,.63-.7,.99,.23,.71,.7,.99,1.09,.41,1.71,.41,1.24-.14,1.71-.41,.7-.63,.7-.99-.23-.71-.7-.99Z"/><path class="cls-2" d="M34.47,39.32c-.47-.27-1.09-.41-1.71-.41s-1.24,.14-1.71,.41-.7,.63-.7,.99,.23,.71,.7,.99,1.09,.41,1.71,.41,1.24-.14,1.71-.41,.7-.63,.7-.99-.23-.71-.7-.99Z"/></g><g class="cls-12"><path class="cls-2" d="M38.34,21c-.47-.27-1.09-.41-1.71-.41s-1.24,.14-1.71,.41-.7,.63-.7,.99,.23,.71,.7,.99,1.09,.41,1.71,.41,1.24-.14,1.71-.41,.7-.63,.7-.99-.23-.71-.7-.99Z"/><path class="cls-2" d="M38.34,21c-.47-.27-1.09-.41-1.71-.41s-1.24,.14-1.71,.41-.7,.63-.7,.99,.23,.71,.7,.99,1.09,.41,1.71,.41,1.24-.14,1.71-.41,.7-.63,.7-.99-.23-.71-.7-.99Z"/></g><g class="cls-12"><path class="cls-2" d="M48.92,35.42c-.47-.27-1.09-.41-1.71-.41s-1.24,.14-1.71,.41-.7,.63-.7,.99,.23,.71,.7,.99,1.09,.41,1.71,.41,1.24-.14,1.71-.41,.7-.63,.7-.99-.23-.71-.7-.99Z"/><path class="cls-2" d="M48.92,35.42c-.47-.27-1.09-.41-1.71-.41s-1.24,.14-1.71,.41-.7,.63-.7,.99,.23,.71,.7,.99,1.09,.41,1.71,.41,1.24-.14,1.71-.41,.7-.63,.7-.99-.23-.71-.7-.99Z"/></g><g class="cls-12"><path class="cls-2" d="M59.04,23.62c-.47-.27-1.09-.41-1.71-.41s-1.24,.14-1.71,.41-.7,.63-.7,.99,.23,.71,.7,.99,1.09,.41,1.71,.41,1.24-.14,1.71-.41,.7-.63,.7-.99-.23-.71-.7-.99Z"/><path class="cls-2" d="M59.04,23.62c-.47-.27-1.09-.41-1.71-.41s-1.24,.14-1.71,.41-.7,.63-.7,.99,.23,.71,.7,.99,1.09,.41,1.71,.41,1.24-.14,1.71-.41,.7-.63,.7-.99-.23-.71-.7-.99Z"/></g><g class="cls-12"><path class="cls-2" d="M58.95,37.92c-.47-.27-1.09-.41-1.71-.41s-1.24,.14-1.71,.41-.7,.63-.7,.99,.23,.71,.7,.99,1.09,.41,1.71,.41,1.24-.14,1.71-.41,.7-.63,.7-.99-.23-.71-.7-.99Z"/><path class="cls-2" d="M58.95,37.92c-.47-.27-1.09-.41-1.71-.41s-1.24,.14-1.71,.41-.7,.63-.7,.99,.23,.71,.7,.99,1.09,.41,1.71,.41,1.24-.14,1.71-.41,.7-.63,.7-.99-.23-.71-.7-.99Z"/></g><g class="cls-12"><path class="cls-2" d="M73.32,30.87c-.29-.16-.68-.25-1.06-.25s-.77,.08-1.06,.25-.44,.38-.44,.6,.15,.43,.44,.6,.68,.25,1.06,.25,.77-.08,1.06-.25,.44-.38,.44-.6-.15-.43-.44-.6Z"/><path class="cls-2" d="M73.32,30.87c-.29-.16-.68-.25-1.06-.25s-.77,.08-1.06,.25-.44,.38-.44,.6,.15,.43,.44,.6,.68,.25,1.06,.25,.77-.08,1.06-.25,.44-.38,.44-.6-.15-.43-.44-.6Z"/></g><g class="cls-12"><path class="cls-2" d="M52.23,28.57c-.29-.16-.68-.25-1.06-.25s-.77,.08-1.06,.25-.44,.38-.44,.6,.15,.43,.44,.6,.68,.25,1.06,.25,.77-.08,1.06-.25,.44-.38,.44-.6-.15-.43-.44-.6Z"/><path class="cls-2" d="M52.23,28.57c-.29-.16-.68-.25-1.06-.25s-.77,.08-1.06,.25-.44,.38-.44,.6,.15,.43,.44,.6,.68,.25,1.06,.25,.77-.08,1.06-.25,.44-.38,.44-.6-.15-.43-.44-.6Z"/></g><g class="cls-12"><path class="cls-2" d="M51.86,42.54c-.29-.16-.68-.25-1.06-.25s-.77,.08-1.06,.25-.44,.38-.44,.6,.15,.43,.44,.6,.68,.25,1.06,.25,.77-.08,1.06-.25,.44-.38,.44-.6-.15-.43-.44-.6Z"/><path class="cls-2" d="M51.86,42.54c-.29-.16-.68-.25-1.06-.25s-.77,.08-1.06,.25-.44,.38-.44,.6,.15,.43,.44,.6,.68,.25,1.06,.25,.77-.08,1.06-.25,.44-.38,.44-.6-.15-.43-.44-.6Z"/></g><g class="cls-12"><path class="cls-2" d="M30.29,32.44c-.29-.16-.68-.25-1.06-.25s-.77,.08-1.06,.25-.44,.38-.44,.6,.15,.43,.44,.6,.68,.25,1.06,.25,.77-.08,1.06-.25,.44-.38,.44-.6-.15-.43-.44-.6Z"/><path class="cls-2" d="M30.29,32.44c-.29-.16-.68-.25-1.06-.25s-.77,.08-1.06,.25-.44,.38-.44,.6,.15,.43,.44,.6,.68,.25,1.06,.25,.77-.08,1.06-.25,.44-.38,.44-.6-.15-.43-.44-.6Z"/></g><g class="cls-12"><path class="cls-2" d="M45.35,16.1c-.29-.16-.68-.25-1.06-.25s-.77,.08-1.06,.25-.44,.38-.44,.6,.15,.43,.44,.6,.68,.25,1.06,.25,.77-.08,1.06-.25,.44-.38,.44-.6-.15-.43-.44-.6Z"/><path class="cls-2" d="M45.35,16.1c-.29-.16-.68-.25-1.06-.25s-.77,.08-1.06,.25-.44,.38-.44,.6,.15,.43,.44,.6,.68,.25,1.06,.25,.77-.08,1.06-.25,.44-.38,.44-.6-.15-.43-.44-.6Z"/></g><g class="cls-12"><path class="cls-2" d="M28.8,24.85c-.29-.16-.68-.25-1.06-.25s-.77,.08-1.06,.25-.44,.38-.44,.6,.15,.43,.44,.6,.68,.25,1.06,.25,.77-.08,1.06-.25,.44-.38,.44-.6-.15-.43-.44-.6Z"/><path class="cls-2" d="M28.8,24.85c-.29-.16-.68-.25-1.06-.25s-.77,.08-1.06,.25-.44,.38-.44,.6,.15,.43,.44,.6,.68,.25,1.06,.25,.77-.08,1.06-.25,.44-.38,.44-.6-.15-.43-.44-.6Z"/></g></svg>